<svg id="my-svg" width="100%" xmlns="http://www.w3.org/2000/svg" xmlns:xlink="http://www.w3.org/1999/xlink" class="flowchart" style="max-width: 6228.75px; background-color: white;" viewBox="0 0 6228.75 1321.5" role="graphics-document document" aria-roledescription="flowchart-v2"><style>#my-svg{font-family:Segoe UI;font-size:24px;fill:#ffffff;}@keyframes edge-animation-frame{from{stroke-dashoffset:0;}}@keyframes dash{to{stroke-dashoffset:0;}}#my-svg .edge-animation-slow{stroke-dasharray:9,5!important;stroke-dashoffset:900;animation:dash 50s linear infinite;stroke-linecap:round;}#my-svg .edge-animation-fast{stroke-dasharray:9,5!important;stroke-dashoffset:900;animation:dash 20s linear infinite;stroke-linecap:round;}#my-svg .error-icon{fill:#f4f8fb;}#my-svg .error-text{fill:#0b0704;stroke:#0b0704;}#my-svg .edge-thickness-normal{stroke-width:1px;}#my-svg .edge-thickness-thick{stroke-width:3.5px;}#my-svg .edge-pattern-solid{stroke-dasharray:0;}#my-svg .edge-thickness-invisible{stroke-width:0;fill:none;}#my-svg .edge-pattern-dashed{stroke-dasharray:3;}#my-svg .edge-pattern-dotted{stroke-dasharray:2;}#my-svg .marker{fill:#264653;stroke:#264653;}#my-svg .marker.cross{stroke:#264653;}#my-svg svg{font-family:Segoe UI;font-size:24px;}#my-svg p{margin:0;}#my-svg .label{font-family:Segoe UI;color:#ffffff;}#my-svg .cluster-label text{fill:#0b0704;}#my-svg .cluster-label span{color:#0b0704;}#my-svg .cluster-label span p{background-color:transparent;}#my-svg .label text,#my-svg span{fill:#ffffff;color:#ffffff;}#my-svg .node rect,#my-svg .node circle,#my-svg .node ellipse,#my-svg .node polygon,#my-svg .node path{fill:#0f4c81;stroke:#0a3558;stroke-width:1px;}#my-svg .rough-node .label text,#my-svg .node .label text,#my-svg .image-shape .label,#my-svg .icon-shape .label{text-anchor:middle;}#my-svg .node .katex path{fill:#000;stroke:#000;stroke-width:1px;}#my-svg .rough-node .label,#my-svg .node .label,#my-svg .image-shape .label,#my-svg .icon-shape .label{text-align:center;}#my-svg .node.clickable{cursor:pointer;}#my-svg .root .anchor path{fill:#264653!important;stroke-width:0;stroke:#264653;}#my-svg .arrowheadPath{fill:#0b0b0b;}#my-svg .edgePath .path{stroke:#264653;stroke-width:2.0px;}#my-svg .flowchart-link{stroke:#264653;fill:none;}#my-svg .edgeLabel{background-color:#d9eefc;text-align:center;}#my-svg .edgeLabel p{background-color:#d9eefc;}#my-svg .edgeLabel rect{opacity:0.5;background-color:#d9eefc;fill:#d9eefc;}#my-svg .labelBkg{background-color:rgba(217, 238, 252, 0.5);}#my-svg .cluster rect{fill:#f4f8fb;stroke:hsl(205.7142857143, 6.6666666667%, 87.0588235294%);stroke-width:1px;}#my-svg .cluster text{fill:#0b0704;}#my-svg .cluster span{color:#0b0704;}#my-svg div.mermaidTooltip{position:absolute;text-align:center;max-width:200px;padding:2px;font-family:Segoe UI;font-size:12px;background:#f4f8fb;border:1px solid hsl(205.7142857143, 6.6666666667%, 87.0588235294%);border-radius:2px;pointer-events:none;z-index:100;}#my-svg .flowchartTitleText{text-anchor:middle;font-size:18px;fill:#ffffff;}#my-svg rect.text{fill:none;stroke-width:0;}#my-svg .icon-shape,#my-svg .image-shape{background-color:#d9eefc;text-align:center;}#my-svg .icon-shape p,#my-svg .image-shape p{background-color:#d9eefc;padding:2px;}#my-svg .icon-shape rect,#my-svg .image-shape rect{opacity:0.5;background-color:#d9eefc;fill:#d9eefc;}#my-svg .label-icon{display:inline-block;height:1em;overflow:visible;vertical-align:-0.125em;}#my-svg .node .label-icon path{fill:currentColor;stroke:revert;stroke-width:revert;}#my-svg :root{--mermaid-font-family:"trebuchet ms",verdana,arial,sans-serif;}#my-svg .phase&gt;*{fill:#d9eefc!important;stroke:#0f4c81!important;stroke-width:3px!important;color:#0b1f33!important;}#my-svg .phase span{fill:#d9eefc!important;stroke:#0f4c81!important;stroke-width:3px!important;color:#0b1f33!important;}#my-svg .phase tspan{fill:#0b1f33!important;}#my-svg .durable&gt;*{fill:#dff3e4!important;stroke:#2f855a!important;stroke-width:3px!important;color:#123524!important;}#my-svg .durable span{fill:#dff3e4!important;stroke:#2f855a!important;stroke-width:3px!important;color:#123524!important;}#my-svg .durable tspan{fill:#123524!important;}#my-svg .sidecar&gt;*{fill:#fef3d6!important;stroke:#b7791f!important;stroke-width:2px!important;color:#4a3410!important;}#my-svg .sidecar span{fill:#fef3d6!important;stroke:#b7791f!important;stroke-width:2px!important;color:#4a3410!important;}#my-svg .sidecar tspan{fill:#4a3410!important;}</style><g><marker id="my-svg_flowchart-v2-pointEnd" class="marker flowchart-v2" viewBox="0 0 10 10" refX="5" refY="5" markerUnits="userSpaceOnUse" markerWidth="8" markerHeight="8" orient="auto"><path d="M 0 0 L 10 5 L 0 10 z" class="arrowMarkerPath" style="stroke-width: 1; stroke-dasharray: 1, 0;"/></marker><marker id="my-svg_flowchart-v2-pointStart" class="marker flowchart-v2" viewBox="0 0 10 10" refX="4.5" refY="5" markerUnits="userSpaceOnUse" markerWidth="8" markerHeight="8" orient="auto"><path d="M 0 5 L 10 10 L 10 0 z" class="arrowMarkerPath" style="stroke-width: 1; stroke-dasharray: 1, 0;"/></marker><marker id="my-svg_flowchart-v2-circleEnd" class="marker flowchart-v2" viewBox="0 0 10 10" refX="11" refY="5" markerUnits="userSpaceOnUse" markerWidth="11" markerHeight="11" orient="auto"><circle cx="5" cy="5" r="5" class="arrowMarkerPath" style="stroke-width: 1; stroke-dasharray: 1, 0;"/></marker><marker id="my-svg_flowchart-v2-circleStart" class="marker flowchart-v2" viewBox="0 0 10 10" refX="-1" refY="5" markerUnits="userSpaceOnUse" markerWidth="11" markerHeight="11" orient="auto"><circle cx="5" cy="5" r="5" class="arrowMarkerPath" style="stroke-width: 1; stroke-dasharray: 1, 0;"/></marker><marker id="my-svg_flowchart-v2-crossEnd" class="marker cross flowchart-v2" viewBox="0 0 11 11" refX="12" refY="5.2" markerUnits="userSpaceOnUse" markerWidth="11" markerHeight="11" orient="auto"><path d="M 1,1 l 9,9 M 10,1 l -9,9" class="arrowMarkerPath" style="stroke-width: 2; stroke-dasharray: 1, 0;"/></marker><marker id="my-svg_flowchart-v2-crossStart" class="marker cross flowchart-v2" viewBox="0 0 11 11" refX="-1" refY="5.2" markerUnits="userSpaceOnUse" markerWidth="11" markerHeight="11" orient="auto"><path d="M 1,1 l 9,9 M 10,1 l -9,9" class="arrowMarkerPath" style="stroke-width: 2; stroke-dasharray: 1, 0;"/></marker><g class="root"><g class="clusters"><g class="cluster" id="FINALIZE" data-look="classic"><rect style="" x="4806.984375" y="240.5" width="1032" height="777.5"/><g class="cluster-label" transform="translate(5222.984375, 240.5)"><foreignObject width="200" height="108"><div xmlns="http://www.w3.org/1999/xhtml" style="display: table; white-space: break-spaces; line-height: 1.5; max-width: 200px; text-align: center; width: 200px;"><span class="nodeLabel"><p>Finalization And Completion (11-13)</p></span></div></foreignObject></g></g><g class="cluster" id="EXEC" data-look="classic"><rect style="" x="3653.34375" y="341" width="1069.640625" height="366"/><g class="cluster-label" transform="translate(4088.1640625, 341)"><foreignObject width="200" height="144"><div xmlns="http://www.w3.org/1999/xhtml" style="display: table; white-space: break-spaces; line-height: 1.5; max-width: 200px; text-align: center; width: 200px;"><span class="nodeLabel"><p>Planner Processing And Source Execution (08-10)</p></span></div></foreignObject></g></g><g class="cluster" id="DISCOVERY" data-look="classic"><rect style="" x="436" y="332" width="2868.765625" height="652"/><g class="cluster-label" transform="translate(1770.3828125, 332)"><foreignObject width="200" height="72"><div xmlns="http://www.w3.org/1999/xhtml" style="display: table; white-space: break-spaces; line-height: 1.5; max-width: 200px; text-align: center; width: 200px;"><span class="nodeLabel"><p>Discovery Seed (01-07)</p></span></div></foreignObject></g></g><g class="cluster" id="BOOT" data-look="classic"><rect style="" x="8" y="490" width="344" height="741"/><g class="cluster-label" transform="translate(128.5, 490)"><foreignObject width="103" height="36"><div xmlns="http://www.w3.org/1999/xhtml" style="display: table-cell; white-space: nowrap; line-height: 1.5; max-width: 200px; text-align: center;"><span class="nodeLabel"><p>Bootstrap</p></span></div></foreignObject></g></g></g><g class="edgePaths"><path d="M738,668.006L745,665.422C752,662.837,766,657.669,779.333,655.084C792.667,652.5,805.333,652.5,811.667,652.5L818,652.5" id="L_S01_S02_0" class="edge-thickness-normal edge-pattern-solid edge-thickness-normal edge-pattern-solid flowchart-link" style=";" data-edge="true" data-et="edge" data-id="L_S01_S02_0" data-points="W3sieCI6NzM4LCJ5Ijo2NjguMDA1ODEzOTUzNDg4M30seyJ4Ijo3ODAsInkiOjY1Mi41fSx7IngiOjgyMiwieSI6NjUyLjV9XQ==" marker-end="url(#my-svg_flowchart-v2-pointEnd)"/><path d="M1082,652.5L1089,652.5C1096,652.5,1110,652.5,1123.333,652.5C1136.667,652.5,1149.333,652.5,1155.667,652.5L1162,652.5" id="L_S02_S03_0" class="edge-thickness-normal edge-pattern-solid edge-thickness-normal edge-pattern-solid flowchart-link" style=";" data-edge="true" data-et="edge" data-id="L_S02_S03_0" data-points="W3sieCI6MTA4MiwieSI6NjUyLjV9LHsieCI6MTEyNCwieSI6NjUyLjV9LHsieCI6MTE2NiwieSI6NjUyLjV9XQ==" marker-end="url(#my-svg_flowchart-v2-pointEnd)"/><path d="M1426,576.541L1433,572.451C1440,568.36,1454,560.18,1467.333,556.09C1480.667,552,1493.333,552,1499.667,552L1506,552" id="L_S03_S04_0" class="edge-thickness-normal edge-pattern-solid edge-thickness-normal edge-pattern-solid flowchart-link" style=";" data-edge="true" data-et="edge" data-id="L_S03_S04_0" data-points="W3sieCI6MTQyNiwieSI6NTc2LjU0MDY5NzY3NDQxODd9LHsieCI6MTQ2OCwieSI6NTUyfSx7IngiOjE1MTAsInkiOjU1Mn1d" marker-end="url(#my-svg_flowchart-v2-pointEnd)"/><path d="M1770,552L1777,552C1784,552,1798,552,1811.333,552C1824.667,552,1837.333,552,1843.667,552L1850,552" id="L_S04_S05_0" class="edge-thickness-normal edge-pattern-solid edge-thickness-normal edge-pattern-solid flowchart-link" style=";" data-edge="true" data-et="edge" data-id="L_S04_S05_0" data-points="W3sieCI6MTc3MCwieSI6NTUyfSx7IngiOjE4MTIsInkiOjU1Mn0seyJ4IjoxODU0LCJ5Ijo1NTJ9XQ==" marker-end="url(#my-svg_flowchart-v2-pointEnd)"/><path d="M2114,538.618L2137.667,536.181C2161.333,533.745,2208.667,528.873,2260.78,526.436C2312.893,524,2369.786,524,2398.233,524L2426.68,524" id="L_S05_S06_0" class="edge-thickness-normal edge-pattern-solid edge-thickness-normal edge-pattern-solid flowchart-link" style=";" data-edge="true" data-et="edge" data-id="L_S05_S06_0" data-points="W3sieCI6MjExNCwieSI6NTM4LjYxNzY0NzA1ODgyMzV9LHsieCI6MjI1NiwieSI6NTI0fSx7IngiOjI0MzAuNjc5Njg3NSwieSI6NTI0fV0=" marker-end="url(#my-svg_flowchart-v2-pointEnd)"/><path d="M2690.68,524L2719.41,524C2748.141,524,2805.602,524,2856.949,524C2908.297,524,2953.531,524,2976.148,524L2998.766,524" id="L_S06_S07_0" class="edge-thickness-normal edge-pattern-solid edge-thickness-normal edge-pattern-solid flowchart-link" style=";" data-edge="true" data-et="edge" data-id="L_S06_S07_0" data-points="W3sieCI6MjY5MC42Nzk2ODc1LCJ5Ijo1MjR9LHsieCI6Mjg2My4wNjI1LCJ5Ijo1MjR9LHsieCI6MzAwMi43NjU2MjUsInkiOjUyNH1d" marker-end="url(#my-svg_flowchart-v2-pointEnd)"/><path d="M3955.344,524L3962.344,524C3969.344,524,3983.344,524,3996.677,524C4010.01,524,4022.677,524,4029.01,524L4035.344,524" id="L_S08_S09_0" class="edge-thickness-normal edge-pattern-solid edge-thickness-normal edge-pattern-solid flowchart-link" style=";" data-edge="true" data-et="edge" data-id="L_S08_S09_0" data-points="W3sieCI6Mzk1NS4zNDM3NSwieSI6NTI0fSx7IngiOjM5OTcuMzQzNzUsInkiOjUyNH0seyJ4Ijo0MDM5LjM0Mzc1LCJ5Ijo1MjR9XQ==" marker-end="url(#my-svg_flowchart-v2-pointEnd)"/><path d="M4336.984,524L4343.984,524C4350.984,524,4364.984,524,4378.318,524C4391.651,524,4404.318,524,4410.651,524L4416.984,524" id="L_S09_S10_0" class="edge-thickness-normal edge-pattern-solid edge-thickness-normal edge-pattern-solid flowchart-link" style=";" data-edge="true" data-et="edge" data-id="L_S09_S10_0" data-points="W3sieCI6NDMzNi45ODQzNzUsInkiOjUyNH0seyJ4Ijo0Mzc4Ljk4NDM3NSwieSI6NTI0fSx7IngiOjQ0MjAuOTg0Mzc1LCJ5Ijo1MjR9XQ==" marker-end="url(#my-svg_flowchart-v2-pointEnd)"/><path d="M5108.984,524L5115.984,524C5122.984,524,5136.984,524,5150.452,528.869C5163.919,533.739,5176.854,543.477,5183.321,548.347L5189.789,553.216" id="L_S11_S12_0" class="edge-thickness-normal edge-pattern-solid edge-thickness-normal edge-pattern-solid flowchart-link" style=";" data-edge="true" data-et="edge" data-id="L_S11_S12_0" data-points="W3sieCI6NTEwOC45ODQzNzUsInkiOjUyNH0seyJ4Ijo1MTUwLjk4NDM3NSwieSI6NTI0fSx7IngiOjUxOTIuOTg0Mzc1LCJ5Ijo1NTUuNjIyMDkzMDIzMjU1OH1d" marker-end="url(#my-svg_flowchart-v2-pointEnd)"/><path d="M5452.984,653.5L5459.984,653.5C5466.984,653.5,5480.984,653.5,5494.318,653.5C5507.651,653.5,5520.318,653.5,5526.651,653.5L5532.984,653.5" id="L_S12_S13_0" class="edge-thickness-normal edge-pattern-solid edge-thickness-normal edge-pattern-solid flowchart-link" style=";" data-edge="true" data-et="edge" data-id="L_S12_S13_0" data-points="W3sieCI6NTQ1Mi45ODQzNzUsInkiOjY1My41fSx7IngiOjU0OTQuOTg0Mzc1LCJ5Ijo2NTMuNX0seyJ4Ijo1NTM2Ljk4NDM3NSwieSI6NjUzLjV9XQ==" marker-end="url(#my-svg_flowchart-v2-pointEnd)"/><path d="M2114,587.129L2137.667,593.524C2161.333,599.919,2208.667,612.71,2267.728,563.75C2326.789,514.79,2397.579,404.08,2432.973,348.725L2468.368,293.37" id="L_S05_GOOGLE_0" class="edge-thickness-normal edge-pattern-dotted edge-thickness-normal edge-pattern-solid flowchart-link" style=";" data-edge="true" data-et="edge" data-id="L_S05_GOOGLE_0" data-points="W3sieCI6MjExNCwieSI6NTg3LjEyODY3NjQ3MDU4ODN9LHsieCI6MjI1NiwieSI6NjI1LjV9LHsieCI6MjQ3MC41MjI2MzQxMTU5NDk2LCJ5IjoyOTB9XQ==" marker-end="url(#my-svg_flowchart-v2-pointEnd)"/><path d="M1426,729.215L1433,733.346C1440,737.477,1454,745.738,1489.667,749.869C1525.333,754,1582.667,754,1640,754C1697.333,754,1754.667,754,1812,754C1869.333,754,1926.667,754,2000.667,754C2074.667,754,2165.333,754,2261.447,754C2357.56,754,2459.12,754,2560.297,754C2661.474,754,2762.268,754,2857.616,754C2952.964,754,3042.865,754,3116.482,754C3190.099,754,3247.432,754,3305.147,754C3362.862,754,3420.958,754,3479.055,754C3537.151,754,3595.247,754,3652.962,754C3710.677,754,3768.01,754,3825.344,754C3882.677,754,3940.01,754,4000.48,754C4060.951,754,4124.557,754,4188.164,754C4251.771,754,4315.378,754,4375.848,754C4436.318,754,4493.651,754,4550.984,754C4608.318,754,4665.651,754,4701.318,754C4736.984,754,4750.984,754,4764.984,754C4778.984,754,4792.984,754,4828.651,754C4864.318,754,4921.651,754,4978.984,754C5036.318,754,5093.651,754,5128.742,750.246C5163.833,746.492,5176.682,738.985,5183.106,735.231L5189.531,731.477" id="L_S03_S12_0" class="edge-thickness-normal edge-pattern-dotted edge-thickness-normal edge-pattern-solid flowchart-link" style=";" data-edge="true" data-et="edge" data-id="L_S03_S12_0" data-points="W3sieCI6MTQyNiwieSI6NzI5LjIxNTExNjI3OTA2OTh9LHsieCI6MTQ2OCwieSI6NzU0fSx7IngiOjE2NDAsInkiOjc1NH0seyJ4IjoxODEyLCJ5Ijo3NTR9LHsieCI6MTk4NCwieSI6NzU0fSx7IngiOjIyNTYsInkiOjc1NH0seyJ4IjoyNTYwLjY3OTY4NzUsInkiOjc1NH0seyJ4IjoyODYzLjA2MjUsInkiOjc1NH0seyJ4IjozMTMyLjc2NTYyNSwieSI6NzU0fSx7IngiOjMzMDQuNzY1NjI1LCJ5Ijo3NTR9LHsieCI6MzQ3OS4wNTQ2ODc1LCJ5Ijo3NTR9LHsieCI6MzY1My4zNDM3NSwieSI6NzU0fSx7IngiOjM4MjUuMzQzNzUsInkiOjc1NH0seyJ4IjozOTk3LjM0Mzc1LCJ5Ijo3NTR9LHsieCI6NDE4OC4xNjQwNjI1LCJ5Ijo3NTR9LHsieCI6NDM3OC45ODQzNzUsInkiOjc1NH0seyJ4Ijo0NTUwLjk4NDM3NSwieSI6NzU0fSx7IngiOjQ3MjIuOTg0Mzc1LCJ5Ijo3NTR9LHsieCI6NDc2NC45ODQzNzUsInkiOjc1NH0seyJ4Ijo0ODA2Ljk4NDM3NSwieSI6NzU0fSx7IngiOjQ5NzguOTg0Mzc1LCJ5Ijo3NTR9LHsieCI6NTE1MC45ODQzNzUsInkiOjc1NH0seyJ4Ijo1MTkyLjk4NDM3NSwieSI6NzI5LjQ1OTMwMjMyNTU4MTN9XQ==" marker-end="url(#my-svg_flowchart-v2-pointEnd)"/><path d="M5192.984,819.779L5185.984,828.733C5178.984,837.686,5164.984,855.593,5129.318,864.547C5093.651,873.5,5036.318,873.5,4978.984,873.5C4921.651,873.5,4864.318,873.5,4828.651,873.5C4792.984,873.5,4778.984,873.5,4764.984,873.5C4750.984,873.5,4736.984,873.5,4701.318,873.5C4665.651,873.5,4608.318,873.5,4550.984,873.5C4493.651,873.5,4436.318,873.5,4375.848,873.5C4315.378,873.5,4251.771,873.5,4188.164,873.5C4124.557,873.5,4060.951,873.5,4000.48,873.5C3940.01,873.5,3882.677,873.5,3825.344,873.5C3768.01,873.5,3710.677,873.5,3652.962,873.5C3595.247,873.5,3537.151,873.5,3479.055,873.5C3420.958,873.5,3362.862,873.5,3305.147,873.5C3247.432,873.5,3190.099,873.5,3116.482,873.5C3042.865,873.5,2952.964,873.5,2857.616,873.5C2762.268,873.5,2661.474,873.5,2560.297,873.5C2459.12,873.5,2357.56,873.5,2261.447,873.5C2165.333,873.5,2074.667,873.5,2000.667,873.5C1926.667,873.5,1869.333,873.5,1812,873.5C1754.667,873.5,1697.333,873.5,1640,873.5C1582.667,873.5,1525.333,873.5,1468,873.5C1410.667,873.5,1353.333,873.5,1296,873.5C1238.667,873.5,1181.333,873.5,1124,873.5C1066.667,873.5,1009.333,873.5,952,873.5C894.667,873.5,837.333,873.5,802.158,867.54C766.983,861.581,753.967,849.661,747.458,843.702L740.95,837.742" id="L_S12_S01_0" class="edge-thickness-normal edge-pattern-dotted edge-thickness-normal edge-pattern-solid flowchart-link" style=";" data-edge="true" data-et="edge" data-id="L_S12_S01_0" data-points="W3sieCI6NTE5Mi45ODQzNzUsInkiOjgxOS43NzkwNjk3Njc0NDE4fSx7IngiOjUxNTAuOTg0Mzc1LCJ5Ijo4NzMuNX0seyJ4Ijo0OTc4Ljk4NDM3NSwieSI6ODczLjV9LHsieCI6NDgwNi45ODQzNzUsInkiOjg3My41fSx7IngiOjQ3NjQuOTg0Mzc1LCJ5Ijo4NzMuNX0seyJ4Ijo0NzIyLjk4NDM3NSwieSI6ODczLjV9LHsieCI6NDU1MC45ODQzNzUsInkiOjg3My41fSx7IngiOjQzNzguOTg0Mzc1LCJ5Ijo4NzMuNX0seyJ4Ijo0MTg4LjE2NDA2MjUsInkiOjg3My41fSx7IngiOjM5OTcuMzQzNzUsInkiOjg3My41fSx7IngiOjM4MjUuMzQzNzUsInkiOjg3My41fSx7IngiOjM2NTMuMzQzNzUsInkiOjg3My41fSx7IngiOjM0NzkuMDU0Njg3NSwieSI6ODczLjV9LHsieCI6MzMwNC43NjU2MjUsInkiOjg3My41fSx7IngiOjMxMzIuNzY1NjI1LCJ5Ijo4NzMuNX0seyJ4IjoyODYzLjA2MjUsInkiOjg3My41fSx7IngiOjI1NjAuNjc5Njg3NSwieSI6ODczLjV9LHsieCI6MjI1NiwieSI6ODczLjV9LHsieCI6MTk4NCwieSI6ODczLjV9LHsieCI6MTgxMiwieSI6ODczLjV9LHsieCI6MTY0MCwieSI6ODczLjV9LHsieCI6MTQ2OCwieSI6ODczLjV9LHsieCI6MTI5NiwieSI6ODczLjV9LHsieCI6MTEyNCwieSI6ODczLjV9LHsieCI6OTUyLCJ5Ijo4NzMuNX0seyJ4Ijo3ODAsInkiOjg3My41fSx7IngiOjczOCwieSI6ODM1LjA0MDY5NzY3NDQxODd9XQ==" marker-end="url(#my-svg_flowchart-v2-pointEnd)"/><path d="M5765.204,440.5L5777.501,413.833C5789.798,387.167,5814.391,333.833,5833.688,307.167C5852.984,280.5,5866.984,280.5,5880.318,280.5C5893.651,280.5,5906.318,280.5,5912.651,280.5L5918.984,280.5" id="L_S13_ART_0" class="edge-thickness-normal edge-pattern-solid edge-thickness-normal edge-pattern-solid flowchart-link" style=";" data-edge="true" data-et="edge" data-id="L_S13_ART_0" data-points="W3sieCI6NTc2NS4yMDQyMTQxNDIwOTIsInkiOjQ0MC41fSx7IngiOjU4MzguOTg0Mzc1LCJ5IjoyODAuNX0seyJ4Ijo1ODgwLjk4NDM3NSwieSI6MjgwLjV9LHsieCI6NTkyMi45ODQzNzUsInkiOjI4MC41fV0=" marker-end="url(#my-svg_flowchart-v2-pointEnd)"/><path d="M5796.984,634.605L5803.984,633.587C5810.984,632.57,5824.984,630.535,5838.984,629.517C5852.984,628.5,5866.984,628.5,5883.465,628.5C5899.945,628.5,5918.906,628.5,5928.387,628.5L5937.867,628.5" id="L_S13_SCHEMA_0" class="edge-thickness-normal edge-pattern-solid edge-thickness-normal edge-pattern-solid flowchart-link" style=";" data-edge="true" data-et="edge" data-id="L_S13_SCHEMA_0" data-points="W3sieCI6NTc5Ni45ODQzNzUsInkiOjYzNC42MDQ2NTExNjI3OTA3fSx7IngiOjU4MzguOTg0Mzc1LCJ5Ijo2MjguNX0seyJ4Ijo1ODgwLjk4NDM3NSwieSI6NjI4LjV9LHsieCI6NTk0MS44NjcxODc1LCJ5Ijo2MjguNX1d" marker-end="url(#my-svg_flowchart-v2-pointEnd)"/><path d="M5796.984,825.07L5803.984,834.308C5810.984,843.547,5824.984,862.023,5838.984,871.262C5852.984,880.5,5866.984,880.5,5883.472,890.54C5899.959,900.58,5918.934,920.66,5928.422,930.7L5937.909,940.74" id="L_S13_LEARN_0" class="edge-thickness-normal edge-pattern-solid edge-thickness-normal edge-pattern-solid flowchart-link" style=";" data-edge="true" data-et="edge" data-id="L_S13_LEARN_0" data-points="W3sieCI6NTc5Ni45ODQzNzUsInkiOjgyNS4wNjk3Njc0NDE4NjA0fSx7IngiOjU4MzguOTg0Mzc1LCJ5Ijo4ODAuNX0seyJ4Ijo1ODgwLjk4NDM3NSwieSI6ODgwLjV9LHsieCI6NTk0MC42NTYyNSwieSI6OTQzLjY0NzIxODkyNTIyNH1d" marker-end="url(#my-svg_flowchart-v2-pointEnd)"/><path d="M5940.656,1096.248L5930.711,1097.29C5920.766,1098.332,5900.875,1100.416,5883.93,1101.458C5866.984,1102.5,5852.984,1102.5,5817.318,1102.5C5781.651,1102.5,5724.318,1102.5,5666.984,1102.5C5609.651,1102.5,5552.318,1102.5,5494.984,1102.5C5437.651,1102.5,5380.318,1102.5,5322.984,1102.5C5265.651,1102.5,5208.318,1102.5,5150.984,1102.5C5093.651,1102.5,5036.318,1102.5,4978.984,1102.5C4921.651,1102.5,4864.318,1102.5,4828.651,1102.5C4792.984,1102.5,4778.984,1102.5,4764.984,1102.5C4750.984,1102.5,4736.984,1102.5,4701.318,1102.5C4665.651,1102.5,4608.318,1102.5,4550.984,1102.5C4493.651,1102.5,4436.318,1102.5,4375.848,1102.5C4315.378,1102.5,4251.771,1102.5,4188.164,1102.5C4124.557,1102.5,4060.951,1102.5,4000.48,1102.5C3940.01,1102.5,3882.677,1102.5,3825.344,1102.5C3768.01,1102.5,3710.677,1102.5,3652.962,1102.5C3595.247,1102.5,3537.151,1102.5,3479.055,1102.5C3420.958,1102.5,3362.862,1102.5,3305.147,1102.5C3247.432,1102.5,3190.099,1102.5,3116.482,1102.5C3042.865,1102.5,2952.964,1102.5,2857.616,1102.5C2762.268,1102.5,2661.474,1102.5,2560.297,1102.5C2459.12,1102.5,2357.56,1102.5,2261.447,1102.5C2165.333,1102.5,2074.667,1102.5,2000.667,1102.5C1926.667,1102.5,1869.333,1102.5,1812,1102.5C1754.667,1102.5,1697.333,1102.5,1640,1102.5C1582.667,1102.5,1525.333,1102.5,1468,1102.5C1410.667,1102.5,1353.333,1102.5,1296,1102.5C1238.667,1102.5,1181.333,1102.5,1124,1102.5C1066.667,1102.5,1009.333,1102.5,952,1102.5C894.667,1102.5,837.333,1102.5,780,1102.5C722.667,1102.5,665.333,1102.5,608,1102.5C550.667,1102.5,493.333,1102.5,457.667,1102.5C422,1102.5,408,1102.5,394,1102.5C380,1102.5,366,1102.5,352.381,1092.995C338.762,1083.49,325.524,1064.479,318.905,1054.974L312.286,1045.469" id="L_LEARN_B0_0" class="edge-thickness-normal edge-pattern-dotted edge-thickness-normal edge-pattern-solid flowchart-link" style=";" data-edge="true" data-et="edge" data-id="L_LEARN_B0_0" data-points="W3sieCI6NTk0MC42NTYyNSwieSI6MTA5Ni4yNDc4MDAxMDY0MTM1fSx7IngiOjU4ODAuOTg0Mzc1LCJ5IjoxMTAyLjV9LHsieCI6NTgzOC45ODQzNzUsInkiOjExMDIuNX0seyJ4Ijo1NjY2Ljk4NDM3NSwieSI6MTEwMi41fSx7IngiOjU0OTQuOTg0Mzc1LCJ5IjoxMTAyLjV9LHsieCI6NTMyMi45ODQzNzUsInkiOjExMDIuNX0seyJ4Ijo1MTUwLjk4NDM3NSwieSI6MTEwMi41fSx7IngiOjQ5NzguOTg0Mzc1LCJ5IjoxMTAyLjV9LHsieCI6NDgwNi45ODQzNzUsInkiOjExMDIuNX0seyJ4Ijo0NzY0Ljk4NDM3NSwieSI6MTEwMi41fSx7IngiOjQ3MjIuOTg0Mzc1LCJ5IjoxMTAyLjV9LHsieCI6NDU1MC45ODQzNzUsInkiOjExMDIuNX0seyJ4Ijo0Mzc4Ljk4NDM3NSwieSI6MTEwMi41fSx7IngiOjQxODguMTY0MDYyNSwieSI6MTEwMi41fSx7IngiOjM5OTcuMzQzNzUsInkiOjExMDIuNX0seyJ4IjozODI1LjM0Mzc1LCJ5IjoxMTAyLjV9LHsieCI6MzY1My4zNDM3NSwieSI6MTEwMi41fSx7IngiOjM0NzkuMDU0Njg3NSwieSI6MTEwMi41fSx7IngiOjMzMDQuNzY1NjI1LCJ5IjoxMTAyLjV9LHsieCI6MzEzMi43NjU2MjUsInkiOjExMDIuNX0seyJ4IjoyODYzLjA2MjUsInkiOjExMDIuNX0seyJ4IjoyNTYwLjY3OTY4NzUsInkiOjExMDIuNX0seyJ4IjoyMjU2LCJ5IjoxMTAyLjV9LHsieCI6MTk4NCwieSI6MTEwMi41fSx7IngiOjE4MTIsInkiOjExMDIuNX0seyJ4IjoxNjQwLCJ5IjoxMTAyLjV9LHsieCI6MTQ2OCwieSI6MTEwMi41fSx7IngiOjEyOTYsInkiOjExMDIuNX0seyJ4IjoxMTI0LCJ5IjoxMTAyLjV9LHsieCI6OTUyLCJ5IjoxMTAyLjV9LHsieCI6NzgwLCJ5IjoxMTAyLjV9LHsieCI6NjA4LCJ5IjoxMTAyLjV9LHsieCI6NDM2LCJ5IjoxMTAyLjV9LHsieCI6Mzk0LCJ5IjoxMTAyLjV9LHsieCI6MzUyLCJ5IjoxMTAyLjV9LHsieCI6MzEwLCJ5IjoxMDQyLjE4NjA0NjUxMTYyNzl9XQ==" marker-end="url(#my-svg_flowchart-v2-pointEnd)"/><path d="M310,750.064L317,744.387C324,738.709,338,727.355,352,721.677C366,716,380,716,393.333,716C406.667,716,419.333,716,425.667,716L432,716" id="L_B0_DISCOVERY_0" class="edge-thickness-normal edge-pattern-solid edge-thickness-normal edge-pattern-solid flowchart-link" style=";" data-edge="true" data-et="edge" data-id="L_B0_DISCOVERY_0" data-points="W3sieCI6MzEwLCJ5Ijo3NTAuMDYzOTUzNDg4MzcyMX0seyJ4IjozNTIsInkiOjcxNn0seyJ4IjozOTQsInkiOjcxNn0seyJ4Ijo0MzYsInkiOjcxNn0seyJ4Ijo0NzgsInkiOjcxNn1d" marker-end="url(#my-svg_flowchart-v2-pointEnd)"/><path d="M3262.766,524L3269.766,524C3276.766,524,3290.766,524,3326.814,524C3362.862,524,3420.958,524,3478.388,524C3535.818,524,3592.581,524,3620.962,524L3649.344,524" id="L_S07_EXEC_0" class="edge-thickness-normal edge-pattern-solid edge-thickness-normal edge-pattern-solid flowchart-link" style=";" data-edge="true" data-et="edge" data-id="L_S07_EXEC_0" data-points="W3sieCI6MzI2Mi43NjU2MjUsInkiOjUyNH0seyJ4IjozMzA0Ljc2NTYyNSwieSI6NTI0fSx7IngiOjM0NzkuMDU0Njg3NSwieSI6NTI0fSx7IngiOjM2NTMuMzQzNzUsInkiOjUyNH0seyJ4IjozNjk1LjM0Mzc1LCJ5Ijo1MjR9XQ==" marker-end="url(#my-svg_flowchart-v2-pointEnd)"/><path d="M4680.984,524L4687.984,524C4694.984,524,4708.984,524,4722.984,524C4736.984,524,4750.984,524,4764.318,524C4777.651,524,4790.318,524,4796.651,524L4802.984,524" id="L_S10_FINALIZE_0" class="edge-thickness-normal edge-pattern-solid edge-thickness-normal edge-pattern-solid flowchart-link" style=";" data-edge="true" data-et="edge" data-id="L_S10_FINALIZE_0" data-points="W3sieCI6NDY4MC45ODQzNzUsInkiOjUyNH0seyJ4Ijo0NzIyLjk4NDM3NSwieSI6NTI0fSx7IngiOjQ3NjQuOTg0Mzc1LCJ5Ijo1MjR9LHsieCI6NDgwNi45ODQzNzUsInkiOjUyNH0seyJ4Ijo0ODQ4Ljk4NDM3NSwieSI6NTI0fV0=" marker-end="url(#my-svg_flowchart-v2-pointEnd)"/></g><g class="edgeLabels"><g class="edgeLabel"><g class="label" data-id="L_S01_S02_0" transform="translate(0, 0)"><foreignObject width="0" height="0"><div xmlns="http://www.w3.org/1999/xhtml" class="labelBkg" style="display: table-cell; white-space: nowrap; line-height: 1.5; max-width: 200px; text-align: center;"><span class="edgeLabel"></span></div></foreignObject></g></g><g class="edgeLabel"><g class="label" data-id="L_S02_S03_0" transform="translate(0, 0)"><foreignObject width="0" height="0"><div xmlns="http://www.w3.org/1999/xhtml" class="labelBkg" style="display: table-cell; white-space: nowrap; line-height: 1.5; max-width: 200px; text-align: center;"><span class="edgeLabel"></span></div></foreignObject></g></g><g class="edgeLabel"><g class="label" data-id="L_S03_S04_0" transform="translate(0, 0)"><foreignObject width="0" height="0"><div xmlns="http://www.w3.org/1999/xhtml" class="labelBkg" style="display: table-cell; white-space: nowrap; line-height: 1.5; max-width: 200px; text-align: center;"><span class="edgeLabel"></span></div></foreignObject></g></g><g class="edgeLabel"><g class="label" data-id="L_S04_S05_0" transform="translate(0, 0)"><foreignObject width="0" height="0"><div xmlns="http://www.w3.org/1999/xhtml" class="labelBkg" style="display: table-cell; white-space: nowrap; line-height: 1.5; max-width: 200px; text-align: center;"><span class="edgeLabel"></span></div></foreignObject></g></g><g class="edgeLabel"><g class="label" data-id="L_S05_S06_0" transform="translate(0, 0)"><foreignObject width="0" height="0"><div xmlns="http://www.w3.org/1999/xhtml" class="labelBkg" style="display: table-cell; white-space: nowrap; line-height: 1.5; max-width: 200px; text-align: center;"><span class="edgeLabel"></span></div></foreignObject></g></g><g class="edgeLabel"><g class="label" data-id="L_S06_S07_0" transform="translate(0, 0)"><foreignObject width="0" height="0"><div xmlns="http://www.w3.org/1999/xhtml" class="labelBkg" style="display: table-cell; white-space: nowrap; line-height: 1.5; max-width: 200px; text-align: center;"><span class="edgeLabel"></span></div></foreignObject></g></g><g class="edgeLabel"><g class="label" data-id="L_S08_S09_0" transform="translate(0, 0)"><foreignObject width="0" height="0"><div xmlns="http://www.w3.org/1999/xhtml" class="labelBkg" style="display: table-cell; white-space: nowrap; line-height: 1.5; max-width: 200px; text-align: center;"><span class="edgeLabel"></span></div></foreignObject></g></g><g class="edgeLabel"><g class="label" data-id="L_S09_S10_0" transform="translate(0, 0)"><foreignObject width="0" height="0"><div xmlns="http://www.w3.org/1999/xhtml" class="labelBkg" style="display: table-cell; white-space: nowrap; line-height: 1.5; max-width: 200px; text-align: center;"><span class="edgeLabel"></span></div></foreignObject></g></g><g class="edgeLabel"><g class="label" data-id="L_S11_S12_0" transform="translate(0, 0)"><foreignObject width="0" height="0"><div xmlns="http://www.w3.org/1999/xhtml" class="labelBkg" style="display: table-cell; white-space: nowrap; line-height: 1.5; max-width: 200px; text-align: center;"><span class="edgeLabel"></span></div></foreignObject></g></g><g class="edgeLabel"><g class="label" data-id="L_S12_S13_0" transform="translate(0, 0)"><foreignObject width="0" height="0"><div xmlns="http://www.w3.org/1999/xhtml" class="labelBkg" style="display: table-cell; white-space: nowrap; line-height: 1.5; max-width: 200px; text-align: center;"><span class="edgeLabel"></span></div></foreignObject></g></g><g class="edgeLabel" transform="translate(2323.64166, 519.71267)"><g class="label" data-id="L_S05_GOOGLE_0" transform="translate(-100, -36)"><foreignObject width="200" height="72"><div xmlns="http://www.w3.org/1999/xhtml" class="labelBkg" style="display: table; white-space: break-spaces; line-height: 1.5; max-width: 200px; text-align: center; width: 200px;"><span class="edgeLabel"><p>google via Crawlee</p></span></div></foreignObject></g></g><g class="edgeLabel" transform="translate(3479.0546875, 754)"><g class="label" data-id="L_S03_S12_0" transform="translate(-132.2890625, -18)"><foreignObject width="264.578125" height="36"><div xmlns="http://www.w3.org/1999/xhtml" class="labelBkg" style="display: table; white-space: break-spaces; line-height: 1.5; max-width: 200px; text-align: center; width: 200px;"><span class="edgeLabel"><p>seed_search_plan_output</p></span></div></foreignObject></g></g><g class="edgeLabel" transform="translate(2863.0625, 873.5)"><g class="label" data-id="L_S12_S01_0" transform="translate(-97.703125, -36)"><foreignObject width="195.40625" height="72"><div xmlns="http://www.w3.org/1999/xhtml" class="labelBkg" style="display: table-cell; white-space: nowrap; line-height: 1.5; max-width: 200px; text-align: center;"><span class="edgeLabel"><p>updated NeedSet<br />+ repair reasoning</p></span></div></foreignObject></g></g><g class="edgeLabel"><g class="label" data-id="L_S13_ART_0" transform="translate(0, 0)"><foreignObject width="0" height="0"><div xmlns="http://www.w3.org/1999/xhtml" class="labelBkg" style="display: table-cell; white-space: nowrap; line-height: 1.5; max-width: 200px; text-align: center;"><span class="edgeLabel"></span></div></foreignObject></g></g><g class="edgeLabel"><g class="label" data-id="L_S13_SCHEMA_0" transform="translate(0, 0)"><foreignObject width="0" height="0"><div xmlns="http://www.w3.org/1999/xhtml" class="labelBkg" style="display: table-cell; white-space: nowrap; line-height: 1.5; max-width: 200px; text-align: center;"><span class="edgeLabel"></span></div></foreignObject></g></g><g class="edgeLabel"><g class="label" data-id="L_S13_LEARN_0" transform="translate(0, 0)"><foreignObject width="0" height="0"><div xmlns="http://www.w3.org/1999/xhtml" class="labelBkg" style="display: table-cell; white-space: nowrap; line-height: 1.5; max-width: 200px; text-align: center;"><span class="edgeLabel"></span></div></foreignObject></g></g><g class="edgeLabel" transform="translate(3132.765625, 1102.5)"><g class="label" data-id="L_LEARN_B0_0" transform="translate(-100, -36)"><foreignObject width="200" height="72"><div xmlns="http://www.w3.org/1999/xhtml" class="labelBkg" style="display: table; white-space: break-spaces; line-height: 1.5; max-width: 200px; text-align: center; width: 200px;"><span class="edgeLabel"><p>next run hints + seeds</p></span></div></foreignObject></g></g><g class="edgeLabel"><g class="label" data-id="L_B0_DISCOVERY_0" transform="translate(0, 0)"><foreignObject width="0" height="0"><div xmlns="http://www.w3.org/1999/xhtml" class="labelBkg" style="display: table-cell; white-space: nowrap; line-height: 1.5; max-width: 200px; text-align: center;"><span class="edgeLabel"></span></div></foreignObject></g></g><g class="edgeLabel"><g class="label" data-id="L_S07_EXEC_0" transform="translate(0, 0)"><foreignObject width="0" height="0"><div xmlns="http://www.w3.org/1999/xhtml" class="labelBkg" style="display: table-cell; white-space: nowrap; line-height: 1.5; max-width: 200px; text-align: center;"><span class="edgeLabel"></span></div></foreignObject></g></g><g class="edgeLabel"><g class="label" data-id="L_S10_FINALIZE_0" transform="translate(0, 0)"><foreignObject width="0" height="0"><div xmlns="http://www.w3.org/1999/xhtml" class="labelBkg" style="display: table-cell; white-space: nowrap; line-height: 1.5; max-width: 200px; text-align: center;"><span class="edgeLabel"></span></div></foreignObject></g></g></g><g class="nodes"><g class="node default phase" id="flowchart-B0-0" transform="translate(180, 855.5)"><rect class="basic label-container" style="fill:#d9eefc !important;stroke:#0f4c81 !important;stroke-width:3px !important" x="-130" y="-195" width="260" height="390"/><g class="label" style="color:#0b1f33 !important" transform="translate(-100, -180)"><rect/><foreignObject width="200" height="360"><div style="color: rgb(11, 31, 51) !important; display: table; white-space: break-spaces; line-height: 1.5; max-width: 200px; text-align: center; width: 200px;" xmlns="http://www.w3.org/1999/xhtml"><span style="color:#0b1f33 !important" class="nodeLabel"><p>runProduct()<br />run id + logger + trace writer<br />identity lock + runtime overrides<br />planner + frontier + resume<br />learning profile + store-hint readback</p></span></div></foreignObject></g></g><g class="node default phase" id="flowchart-S01-1" transform="translate(608, 716)"><rect class="basic label-container" style="fill:#d9eefc !important;stroke:#0f4c81 !important;stroke-width:3px !important" x="-130" y="-123" width="260" height="246"/><g class="label" style="color:#0b1f33 !important" transform="translate(-100, -108)"><rect/><foreignObject width="200" height="216"><div style="color: rgb(11, 31, 51) !important; display: table; white-space: break-spaces; line-height: 1.5; max-width: 200px; text-align: center; width: 200px;" xmlns="http://www.w3.org/1999/xhtml"><span style="color:#0b1f33 !important" class="nodeLabel"><p>01 NeedSet<br />field state + history<br />summary + blockers<br />planner_seed</p></span></div></foreignObject></g></g><g class="node default phase" id="flowchart-S02-2" transform="translate(952, 652.5)"><rect class="basic label-container" style="fill:#d9eefc !important;stroke:#0f4c81 !important;stroke-width:3px !important" x="-130" y="-141" width="260" height="282"/><g class="label" style="color:#0b1f33 !important" transform="translate(-100, -126)"><rect/><foreignObject width="200" height="252"><div style="color: rgb(11, 31, 51) !important; display: table; white-space: break-spaces; line-height: 1.5; max-width: 200px; text-align: center; width: 200px;" xmlns="http://www.w3.org/1999/xhtml"><span style="color:#0b1f33 !important" class="nodeLabel"><p>02 Brand Resolver<br />official/support domain<br />aliases + confidence<br />auto-promotion hints</p></span></div></foreignObject></g></g><g class="node default phase" id="flowchart-S03-3" transform="translate(1296, 652.5)"><rect class="basic label-container" style="fill:#d9eefc !important;stroke:#0f4c81 !important;stroke-width:3px !important" x="-130" y="-123" width="260" height="246"/><g class="label" style="color:#0b1f33 !important" transform="translate(-100, -108)"><rect/><foreignObject width="200" height="216"><div style="color: rgb(11, 31, 51) !important; display: table; white-space: break-spaces; line-height: 1.5; max-width: 200px; text-align: center; width: 200px;" xmlns="http://www.w3.org/1999/xhtml"><span style="color:#0b1f33 !important" class="nodeLabel"><p>03 Search Planner<br />Schema 3 context<br />optional Schema 4 handoff<br />panel + learning writeback</p></span></div></foreignObject></g></g><g class="node default phase" id="flowchart-S04-4" transform="translate(1640, 552)"><rect class="basic label-container" style="fill:#d9eefc !important;stroke:#0f4c81 !important;stroke-width:3px !important" x="-130" y="-141" width="260" height="282"/><g class="label" style="color:#0b1f33 !important" transform="translate(-100, -126)"><rect/><foreignObject width="200" height="252"><div style="color: rgb(11, 31, 51) !important; display: table; white-space: break-spaces; line-height: 1.5; max-width: 200px; text-align: center; width: 200px;" xmlns="http://www.w3.org/1999/xhtml"><span style="color:#0b1f33 !important" class="nodeLabel"><p>04 Query Journey<br />Schema 4 adapter or fallback planner<br />identity guard + reject log<br />selected query rows</p></span></div></foreignObject></g></g><g class="node default phase" id="flowchart-S05-5" transform="translate(1984, 552)"><rect class="basic label-container" style="fill:#d9eefc !important;stroke:#0f4c81 !important;stroke-width:3px !important" x="-130" y="-159" width="260" height="318"/><g class="label" style="color:#0b1f33 !important" transform="translate(-100, -144)"><rect/><foreignObject width="200" height="288"><div style="color: rgb(11, 31, 51) !important; display: table; white-space: break-spaces; line-height: 1.5; max-width: 200px; text-align: center; width: 200px;" xmlns="http://www.w3.org/1999/xhtml"><span style="color:#0b1f33 !important" class="nodeLabel"><p>05 Search Results<br />internal-first search<br />Google Crawlee + SearXNG transport split<br />frontier reuse + plan-only fallback</p></span></div></foreignObject></g></g><g class="node default phase" id="flowchart-S06-6" transform="translate(2560.6796875, 524)"><rect class="basic label-container" style="fill:#d9eefc !important;stroke:#0f4c81 !important;stroke-width:3px !important" x="-130" y="-141" width="260" height="282"/><g class="label" style="color:#0b1f33 !important" transform="translate(-100, -126)"><rect/><foreignObject width="200" height="252"><div style="color: rgb(11, 31, 51) !important; display: table; white-space: break-spaces; line-height: 1.5; max-width: 200px; text-align: center; width: 200px;" xmlns="http://www.w3.org/1999/xhtml"><span style="color:#0b1f33 !important" class="nodeLabel"><p>06 SERP Triage<br />hard drops + soft labels<br />lane quotas + optional rerank<br />searchProfileFinal + serp_explorer</p></span></div></foreignObject></g></g><g class="node default phase" id="flowchart-S07-7" transform="translate(3132.765625, 524)"><rect class="basic label-container" style="fill:#d9eefc !important;stroke:#0f4c81 !important;stroke-width:3px !important" x="-130" y="-141" width="260" height="282"/><g class="label" style="color:#0b1f33 !important" transform="translate(-100, -126)"><rect/><foreignObject width="200" height="252"><div style="color: rgb(11, 31, 51) !important; display: table; white-space: break-spaces; line-height: 1.5; max-width: 200px; text-align: center; width: 200px;" xmlns="http://www.w3.org/1999/xhtml"><span style="color:#0b1f33 !important" class="nodeLabel"><p>07 Queue Seeding<br />approvedUrls -&gt; enqueue<br />candidateUrls -&gt; seedCandidates<br />SourcePlanner revalidation</p></span></div></foreignObject></g></g><g class="node default phase" id="flowchart-S08-15" transform="translate(3825.34375, 524)"><rect class="basic label-container" style="fill:#d9eefc !important;stroke:#0f4c81 !important;stroke-width:3px !important" x="-130" y="-141" width="260" height="282"/><g class="label" style="color:#0b1f33 !important" transform="translate(-100, -126)"><rect/><foreignObject width="200" height="252"><div style="color: rgb(11, 31, 51) !important; display: table; white-space: break-spaces; line-height: 1.5; max-width: 200px; text-align: center; width: 200px;" xmlns="http://www.w3.org/1999/xhtml"><span style="color:#0b1f33 !important" class="nodeLabel"><p>08 Fetch Entry<br />planner dequeue + fetch scheduling<br />artifact persistence + host budgets<br />raw page payloads</p></span></div></foreignObject></g></g><g class="node default phase" id="flowchart-S09-16" transform="translate(4188.1640625, 524)"><rect class="basic label-container" style="fill:#d9eefc !important;stroke:#0f4c81 !important;stroke-width:3px !important" x="-148.8203125" y="-141" width="297.640625" height="282"/><g class="label" style="color:#0b1f33 !important" transform="translate(-118.8203125, -126)"><rect/><foreignObject width="237.640625" height="252"><div style="color: rgb(11, 31, 51) !important; display: table; white-space: break-spaces; line-height: 1.5; max-width: 200px; text-align: center; width: 200px;" xmlns="http://www.w3.org/1999/xhtml"><span style="color:#0b1f33 !important" class="nodeLabel"><p>09 Extraction<br />deterministic extractors + adapters<br />Evidence Pack V2 + optional LLM<br />phase08FieldContexts + prime rows</p></span></div></foreignObject></g></g><g class="node default phase" id="flowchart-S10-17" transform="translate(4550.984375, 524)"><rect class="basic label-container" style="fill:#d9eefc !important;stroke:#0f4c81 !important;stroke-width:3px !important" x="-130" y="-123" width="260" height="246"/><g class="label" style="color:#0b1f33 !important" transform="translate(-100, -108)"><rect/><foreignObject width="200" height="216"><div style="color: rgb(11, 31, 51) !important; display: table; white-space: break-spaces; line-height: 1.5; max-width: 200px; text-align: center; width: 200px;" xmlns="http://www.w3.org/1999/xhtml"><span style="color:#0b1f33 !important" class="nodeLabel"><p>10 Source Identity<br />anchor checks + source identity<br />identity-gated candidates<br />parserHealth</p></span></div></foreignObject></g></g><g class="node default phase" id="flowchart-S11-21" transform="translate(4978.984375, 524)"><rect class="basic label-container" style="fill:#d9eefc !important;stroke:#0f4c81 !important;stroke-width:3px !important" x="-130" y="-141" width="260" height="282"/><g class="label" style="color:#0b1f33 !important" transform="translate(-100, -126)"><rect/><foreignObject width="200" height="252"><div style="color: rgb(11, 31, 51) !important; display: table; white-space: break-spaces; line-height: 1.5; max-width: 200px; text-align: center; width: 200px;" xmlns="http://www.w3.org/1999/xhtml"><span style="color:#0b1f33 !important" class="nodeLabel"><p>11 Consensus<br />clustered field selection<br />provenance + candidates<br />agreementScore + pass-target lists</p></span></div></foreignObject></g></g><g class="node default phase" id="flowchart-S12-22" transform="translate(5322.984375, 653.5)"><rect class="basic label-container" style="fill:#d9eefc !important;stroke:#0f4c81 !important;stroke-width:3px !important" x="-130" y="-195" width="260" height="390"/><g class="label" style="color:#0b1f33 !important" transform="translate(-100, -180)"><rect/><foreignObject width="200" height="360"><div style="color: rgb(11, 31, 51) !important; display: table; white-space: break-spaces; line-height: 1.5; max-width: 200px; text-align: center; width: 200px;" xmlns="http://www.w3.org/1999/xhtml"><span style="color:#0b1f33 !important" class="nodeLabel"><p>12 Finalization Derivation<br />synthetic source ingestion<br />critic + validator + inference + runtime gate<br />needSet + traffic light + publishability</p></span></div></foreignObject></g></g><g class="node default phase" id="flowchart-S13-23" transform="translate(5666.984375, 653.5)"><rect class="basic label-container" style="fill:#d9eefc !important;stroke:#0f4c81 !important;stroke-width:3px !important" x="-130" y="-213" width="260" height="426"/><g class="label" style="color:#0b1f33 !important" transform="translate(-100, -198)"><rect/><foreignObject width="200" height="396"><div style="color: rgb(11, 31, 51) !important; display: table; white-space: break-spaces; line-height: 1.5; max-width: 200px; text-align: center; width: 200px;" xmlns="http://www.w3.org/1999/xhtml"><span style="color:#0b1f33 !important" class="nodeLabel"><p>13 Completion Lifecycle<br />schema packets + AJV validation<br />run_completed + run_result<br />learning gate + store/profile writeback<br />exports + final promotion</p></span></div></foreignObject></g></g><g class="node default durable" id="flowchart-ART-27" transform="translate(6071.8671875, 280.5)"><rect class="basic label-container" style="fill:#dff3e4 !important;stroke:#2f855a !important;stroke-width:3px !important" x="-148.8828125" y="-123" width="297.765625" height="246"/><g class="label" style="color:#123524 !important" transform="translate(-118.8828125, -108)"><rect/><foreignObject width="237.765625" height="216"><div style="color: rgb(18, 53, 36) !important; display: table; white-space: break-spaces; line-height: 1.5; max-width: 200px; text-align: center; width: 200px;" xmlns="http://www.w3.org/1999/xhtml"><span style="color:#123524 !important" class="nodeLabel"><p>Durable Outputs<br />runs/ + latest/ + final/<br />history/runs.jsonl + evidence/sources.jsonl<br />logs/events.jsonl.gz + logs/summary.json</p></span></div></foreignObject></g></g><g class="node default durable" id="flowchart-SCHEMA-28" transform="translate(6071.8671875, 628.5)"><rect class="basic label-container" style="fill:#dff3e4 !important;stroke:#2f855a !important;stroke-width:3px !important" x="-130" y="-159" width="260" height="318"/><g class="label" style="color:#123524 !important" transform="translate(-100, -144)"><rect/><foreignObject width="200" height="288"><div style="color: rgb(18, 53, 36) !important; display: table; white-space: break-spaces; line-height: 1.5; max-width: 200px; text-align: center; width: 200px;" xmlns="http://www.w3.org/1999/xhtml"><span style="color:#123524 !important" class="nodeLabel"><p>Indexing Schema Packets<br />sourceCollection + itemPacket + runMetaPacket<br />validation summary emitted during finalization</p></span></div></foreignObject></g></g><g class="node default sidecar" id="flowchart-GOOGLE-29" transform="translate(2560.6796875, 149)"><rect class="basic label-container" style="fill:#fef3d6 !important;stroke:#b7791f !important;stroke-width:2px !important" x="-162.6796875" y="-141" width="325.359375" height="282"/><g class="label" style="color:#4a3410 !important" transform="translate(-132.6796875, -126)"><rect/><foreignObject width="265.359375" height="252"><div style="color: rgb(74, 52, 16) !important; display: table; white-space: break-spaces; line-height: 1.5; max-width: 200px; text-align: center; width: 200px;" xmlns="http://www.w3.org/1999/xhtml"><span style="color:#4a3410 !important" class="nodeLabel"><p>Google Crawlee Sidecar<br />splitEnginesByTransport()<br />searchGoogle() headless browser + optional screenshot<br />captcha/consent returns empty results</p></span></div></foreignObject></g></g><g class="node default sidecar" id="flowchart-LEARN-30" transform="translate(6071.8671875, 1082.5)"><rect class="basic label-container" style="fill:#fef3d6 !important;stroke:#b7791f !important;stroke-width:2px !important" x="-131.2109375" y="-231" width="262.421875" height="462"/><g class="label" style="color:#4a3410 !important" transform="translate(-101.2109375, -216)"><rect/><foreignObject width="202.421875" height="432"><div style="color: rgb(74, 52, 16) !important; display: table; white-space: break-spaces; line-height: 1.5; max-width: 200px; text-align: center; width: 200px;" xmlns="http://www.w3.org/1999/xhtml"><span style="color:#4a3410 !important" class="nodeLabel"><p>Learning Loop<br />bootstrap reads learningStoreHints + profile seeds<br />Schema 4 emits learning_writeback<br />acceptedUpdates persist to stores + _learning profile<br />next run reuses anchors, URLs, and domain yield</p></span></div></foreignObject></g></g></g></g></g></svg>